<?xml version="1.0" encoding="UTF-8" standalone="no"?>
<svg
   xmlns:dc="http://purl.org/dc/elements/1.1/"
   xmlns:cc="http://creativecommons.org/ns#"
   xmlns:rdf="http://www.w3.org/1999/02/22-rdf-syntax-ns#"
   xmlns:svg="http://www.w3.org/2000/svg"
   xmlns="http://www.w3.org/2000/svg"
   xmlns:sodipodi="http://sodipodi.sourceforge.net/DTD/sodipodi-0.dtd"
   xmlns:inkscape="http://www.inkscape.org/namespaces/inkscape"
   height="24px"
   viewBox="0 0 24 24"
   width="24px"
   fill="#000000"
   version="1.1"
   id="svg6"
   sodipodi:docname="likeUnActiveIcon.svg"
   inkscape:version="1.0.2 (1.0.2+r75+1)">
  <metadata
     id="metadata12">
    <rdf:RDF>
      <cc:Work
         rdf:about="">
        <dc:format>image/svg+xml</dc:format>
        <dc:type
           rdf:resource="http://purl.org/dc/dcmitype/StillImage" />
      </cc:Work>
    </rdf:RDF>
  </metadata>
  <defs
     id="defs10" />
  <sodipodi:namedview
     pagecolor="#ffffff"
     bordercolor="#666666"
     borderopacity="1"
     objecttolerance="10"
     gridtolerance="10"
     guidetolerance="10"
     inkscape:pageopacity="0"
     inkscape:pageshadow="2"
     inkscape:window-width="1920"
     inkscape:window-height="1001"
     id="namedview8"
     showgrid="false"
     inkscape:zoom="29.791667"
     inkscape:cx="11.234408"
     inkscape:cy="12.596001"
     inkscape:window-x="0"
     inkscape:window-y="0"
     inkscape:window-maximized="1"
     inkscape:current-layer="svg6"
     inkscape:document-rotation="0" />
  <path
     d="M0 0h24v24H0V0zm0 0h24v24H0V0z"
     fill="none"
     id="path2" />
  <path
     d="M9 21h9c.83 0 1.54-.5 1.84-1.22l3.02-7.05c.09-.23.14-.47.14-.73v-2c0-1.1-.9-2-2-2h-6.31l.95-4.57.03-.32c0-.41-.17-.79-.44-1.06L14.17 1 7.58 7.59C7.22 7.95 7 8.45 7 9v10c0 1.1.9 2 2 2zM9 9l4.34-4.34L12 10h9v2l-3 7H9V9zM1 9h4v12H1z"
     id="path4" />
  <path
     style="fill:#808080;stroke-width:0.0335664"
     d="M 8.7088315,20.96064 C 8.009251,20.855961 7.3893219,20.337033 7.124084,19.634086 L 7.048951,19.434965 V 13.997203 8.5594406 L 7.124084,8.3603191 C 7.2938784,7.9103215 7.2872522,7.9174694 10.791002,4.4045387 l 3.374033,-3.3828735 0.624129,0.6304261 c 0.484694,0.4895858 0.643242,0.6716702 0.709687,0.8150416 0.117399,0.2533197 0.1712,0.5400807 0.144109,0.7681105 -0.01232,0.1036931 -0.232829,1.2029796 -0.490022,2.4428592 -0.257193,1.2398793 -0.467623,2.2702345 -0.467623,2.2896779 0,0.024455 1.026842,0.038335 3.331468,0.045031 l 3.331469,0.00968 0.246207,0.089882 c 0.35771,0.1305875 0.587861,0.2815112 0.840728,0.5513152 0.247518,0.264097 0.413205,0.5661868 0.490622,0.8945324 0.07231,0.3066753 0.07155,2.5660879 -9.63e-4,2.8736979 -0.04984,0.211418 -3.06966,7.309817 -3.224214,7.578844 -0.218672,0.380634 -0.647978,0.722452 -1.099546,0.875473 l -0.273813,0.09279 -4.716084,0.0047 c -2.593846,0.0026 -4.7999071,-0.0078 -4.9023575,-0.02313 z M 19.52597,15.491211 21.029371,11.983821 V 10.984917 9.986014 h -4.497902 c -2.473847,0 -4.497903,-0.0077 -4.497903,-0.017112 0,-0.00941 0.294546,-1.1949979 0.654546,-2.6346361 0.36,-1.4396381 0.654545,-2.6365094 0.654545,-2.6597139 0,-0.023205 -0.981818,0.9395406 -2.181818,2.1394342 L 8.979021,8.9956105 v 5.0100085 5.010008 l 4.521774,-0.0085 4.521774,-0.0085 z"
     id="path14" />
  <path
     style="fill:#808080;stroke-width:0.0335664"
     d="M 1.0237762,15.004196 V 9.0125874 h 1.9804196 1.9804196 v 5.9916086 5.991608 H 3.0041958 1.0237762 Z"
     id="path16" />
  <path
     style="fill:#808080;stroke-width:0.0335664"
     d="M 8.5263936,20.902569 C 7.9824996,20.756283 7.4919424,20.341381 7.2326309,19.808336 l -0.1543421,-0.317269 0.00869,-5.520232 0.00869,-5.5202316 0.1074375,-0.2174695 C 7.2621944,8.1135256 7.4347591,7.8721678 7.586581,7.6967832 7.7384029,7.5213986 9.2836225,5.9537126 11.020402,4.2130367 l 3.157782,-3.1648653 0.618174,0.6471378 c 0.674567,0.7061735 0.754735,0.8268987 0.816086,1.2289529 0.03893,0.2551497 0.08409,0.00144 -0.565075,3.174635 -0.211111,1.0319319 -0.375394,1.8846848 -0.365072,1.8950065 0.01032,0.010322 1.50979,0.024053 3.332152,0.030515 l 3.313385,0.011748 0.268532,0.1038462 c 0.359915,0.1391856 0.563828,0.274702 0.809452,0.5379447 0.226781,0.2430482 0.375076,0.4839844 0.470412,0.7642799 0.05732,0.1685343 0.06279,0.3044932 0.06279,1.5608396 v 1.376224 l -0.22331,0.537063 c -0.667026,1.604212 -2.184174,5.162738 -2.902935,6.808942 -0.07134,0.16338 -0.198249,0.382401 -0.282031,0.486713 -0.199669,0.248596 -0.572242,0.512455 -0.90454,0.640603 l -0.266837,0.102902 -4.826257,-0.0022 c -4.0993373,-0.0019 -4.8534386,-0.0095 -5.0067194,-0.05075 z m 7.3134804,-1.893871 2.198753,-2.7e-5 1.501947,-3.505117 1.501945,-3.505118 V 10.988869 9.9793007 L 17.173988,9.9792 C 15.046296,9.9791329 13.025102,9.96931 12.682446,9.957331 L 12.059435,9.9355566 12.70757,7.3308524 c 0.356474,-1.4325872 0.648158,-2.6160329 0.648185,-2.6298791 2.8e-5,-0.013846 -0.01639,-0.025175 -0.03649,-0.025175 -0.0201,0 -1.009468,0.9693318 -2.198602,2.1540708 L 8.9586033,8.9839458 v 5.0346612 5.034661 l 2.3412587,-0.02227 c 1.287692,-0.01225 3.330698,-0.02228 4.540012,-0.0223 z"
     id="path18" />
  <path
     style="fill:#808080;stroke-width:0.0335664"
     d="m 7.0616984,13.99049 c 6e-7,-2.99077 0.00396,-4.2092992 0.00879,-2.707844 0.00483,1.501456 0.00483,3.948449 -1.2e-6,5.437763 -0.00484,1.489313 -0.00879,0.26085 -0.00879,-2.729919 z"
     id="path20" />
  <path
     style="fill:#808080;stroke-width:0.0335664"
     d="m 7.0603847,9.693986 c 1.21e-5,-0.6276923 0.00454,-0.8797323 0.010062,-0.5600888 0.00552,0.3196435 0.00551,0.8332099 -2.2e-5,1.1412588 -0.00553,0.308049 -0.010052,0.04652 -0.01004,-0.58117 z"
     id="path22" />
  <path
     style="fill:#808080;stroke-width:0.0335664"
     d="m 7.0586557,9.6772028 c 0,-0.2676923 0.00521,-0.3772028 0.011584,-0.2433566 0.00637,0.1338461 0.00637,0.3528671 0,0.4867132 -0.00637,0.1338466 -0.011584,0.024336 -0.011584,-0.2433566 z"
     id="path24" />
  <path
     style="fill:#000000;stroke-width:0.0335664"
     d="M 1.0302123,15.00371 V 9.0288845 H 2.9938487 4.957485 V 15.00371 20.978535 H 2.9938487 1.0302123 Z"
     id="path15" />
  <path
     style="fill:#000000;stroke-width:0.0335664"
     d="M 9.3043381,20.94664 C 8.5754973,20.929107 8.5210282,20.92331 8.3306307,20.842997 7.8331789,20.633164 7.4606826,20.278366 7.2202562,19.785378 L 7.0721703,19.481732 V 13.99762 8.5135078 L 7.2039563,8.2425247 C 7.29622,8.0528092 7.4181115,7.8809434 7.6103998,7.669444 7.7614615,7.5032901 9.2978924,5.9427873 11.024691,4.2016596 l 3.139633,-3.1656865 0.556309,0.5772253 c 0.672372,0.6976532 0.721442,0.7579833 0.810824,0.9968775 0.14276,0.3815587 0.135687,0.4588363 -0.186556,2.0383891 -0.161951,0.7938461 -0.380249,1.8662937 -0.485106,2.3832167 l -0.190648,0.9398602 0.321791,0.021061 c 0.176985,0.011584 1.685717,0.023227 3.352737,0.025874 1.744721,0.00277 3.055205,0.017767 3.088112,0.035339 0.03144,0.016789 0.19311,0.093946 0.359264,0.1714601 0.569416,0.265643 1.03151,0.8452826 1.122315,1.4078047 0.04318,0.2674825 0.04717,2.4287753 0.005,2.6853143 -0.01771,0.107656 -0.27079,0.758315 -0.607094,1.560839 -0.908968,2.169073 -2.477643,5.818005 -2.608136,6.066848 -0.136858,0.260982 -0.47031,0.595878 -0.751766,0.755022 -0.09969,0.05637 -0.291671,0.141853 -0.426618,0.189961 l -0.245357,0.08747 -4.101496,-0.0067 c -2.255823,-0.0037 -4.4489085,-0.01502 -4.8735239,-0.02523 z m 8.4856509,-1.936533 0.255221,-0.02157 1.495298,-3.488877 1.495298,-3.488877 V 10.989884 9.968988 l -4.490648,-0.00851 -4.490649,-0.00851 0.647659,-2.6013986 c 0.356212,-1.4307692 0.642463,-2.6240559 0.636114,-2.6517482 -0.0071,-0.031081 -0.84868,0.784412 -2.198968,2.1308704 l -2.1874235,2.18122 V 14.0213 19.031689 h 4.2914385 c 2.360292,0 4.406289,-0.0097 4.54666,-0.02157 z"
     id="path17" />
  <path
     style="fill:#666666;stroke-width:0.0335664"
     d="M 1.0302123,14.996001 V 9.0379588 H 2.9938487 4.957485 v 5.9580422 5.958042 H 2.9938487 1.0302123 Z"
     id="path19" />
  <path
     style="fill:#666666;stroke-width:0.0335664"
     d="M 9.2875549,20.92121 8.4987437,20.900882 8.2805619,20.798192 C 7.805513,20.574604 7.4679312,20.232074 7.2026077,19.704438 L 7.0721703,19.445043 V 14.005605 8.5661671 L 7.1919694,8.3237413 C 7.4203822,7.8615244 7.1474357,8.1496322 11.952486,3.2987924 l 2.211785,-2.2328615 0.518664,0.5370629 c 0.623514,0.6456312 0.759038,0.8172107 0.850764,1.0771035 0.05768,0.1634278 0.06688,0.2487386 0.05215,0.4837357 -0.01042,0.1662653 -0.208696,1.228529 -0.475195,2.5458293 -0.251524,1.2432832 -0.447456,2.2703748 -0.435405,2.2824262 0.01205,0.012051 1.527407,0.030286 3.367457,0.04052 l 3.345546,0.018609 0.335664,0.1647084 c 0.588936,0.2889869 1.044337,0.8281618 1.156719,1.3695051 0.02453,0.1181747 0.03393,0.623508 0.02764,1.485737 l -0.0095,1.306651 -0.256087,0.637762 c -0.495917,1.235039 -2.593752,6.146479 -2.882388,6.748227 -0.254627,0.53085 -0.593341,0.844159 -1.15925,1.072302 l -0.292531,0.117933 -4.116061,-0.0063 c -2.263833,-0.0034 -4.471026,-0.0154 -4.9048721,-0.02658 z m 8.5796911,-1.901338 0.197931,-0.02088 1.485315,-3.467397 1.485314,-3.467398 v -1.05997 -1.0599705 h -4.48338 c -4.254529,0 -4.48244,-0.003 -4.464953,-0.058741 0.03275,-0.1043926 1.086885,-4.376213 1.177168,-4.7704057 0.04807,-0.2098769 0.08198,-0.3978509 0.07536,-0.4177202 -0.01625,-0.048762 -0.52786,0.4449664 -2.617478,2.5260157 L 8.9518905,8.98677 v 5.026993 5.026993 h 4.3587125 c 2.397292,0 4.447781,-0.0094 4.556643,-0.02088 z"
     id="path21" />
</svg>
